<?xml version="1.0" standalone="no"?>
<!DOCTYPE svg PUBLIC "-//W3C//DTD SVG 20010904//EN"
 "http://www.w3.org/TR/2001/REC-SVG-20010904/DTD/svg10.dtd">
<svg version="1.0" xmlns="http://www.w3.org/2000/svg"
 width="350.000000pt" height="350.000000pt" viewBox="0 0 350.000000 350.000000"
 preserveAspectRatio="xMidYMid meet">
<metadata>
Created by potrace 1.14, written by Peter Selinger 2001-2017
</metadata>
<g transform="translate(0.000000,350.000000) scale(0.100000,-0.100000)"
fill="#000000" stroke="none">
<path d="M482 3319 c-69 -34 -104 -71 -138 -144 l-24 -50 0 -1376 0 -1376 31
-61 c34 -69 71 -105 145 -139 l51 -23 1224 2 1224 3 41 22 c67 36 101 70 133
135 l31 61 0 1377 0 1377 -31 61 c-34 69 -71 104 -144 138 l-50 24 -1216 0
-1216 0 -61 -31z m2487 -147 c19 -10 43 -34 53 -53 17 -32 18 -95 18 -1369 0
-1274 -1 -1337 -18 -1369 -10 -19 -34 -43 -53 -53 -32 -17 -90 -18 -1209 -18
-1119 0 -1177 1 -1209 18 -19 10 -43 34 -53 53 -17 32 -18 95 -18 1369 0 1274
1 1337 18 1369 10 19 34 43 53 53 32 17 90 18 1209 18 1119 0 1177 -1 1209
-18z"/>
<path d="M1040 2175 l0 -694 43 18 c23 11 93 42 155 70 237 106 503 173 692
175 130 1 173 -16 208 -84 22 -44 22 -46 22 -537 l0 -493 160 0 160 0 0 513
c0 441 -2 521 -16 568 -53 179 -182 303 -360 345 -135 32 -442 1 -655 -66 -35
-11 -70 -20 -76 -20 -10 0 -13 97 -13 450 l0 450 -160 0 -160 0 0 -695z"/>
<path d="M2156 2858 c-51 -192 -92 -287 -180 -423 l-56 -85 163 0 163 0 36 48
c93 123 145 227 179 360 31 122 44 112 -141 112 -120 0 -161 -3 -164 -12z"/>
<path d="M1040 950 l0 -324 33 30 c17 17 97 89 177 159 80 71 145 132 145 135
0 3 -65 64 -145 135 -80 70 -160 142 -177 159 l-33 30 0 -324z"/>
</g>
</svg>
